<?xml version="1.0" ?><svg id="Layer_1_1_" style="enable-background:new 0 0 64 64;" version="1.1" viewBox="0 0 64 64" xml:space="preserve" xmlns="http://www.w3.org/2000/svg" xmlns:xlink="http://www.w3.org/1999/xlink"><g><g><path d="M21,30h28c0.552,0,1,0.448,1,1v2c0,0.552-0.448,1-1,1H21c-0.552,0-1-0.448-1-1v-2    C20,30.448,20.448,30,21,30z" style="fill:#FFC729;"/><path d="M48,34l-0.882,12.342l-0.686,9.609l-0.167,2.335C46.116,60.378,44.374,62,42.276,62H27.724    c-2.099,0-3.84-1.622-3.99-3.715l-0.167-2.335l-0.686-9.609L22,34H48z" style="fill:#E6E9ED;"/><path d="M26,21L14.621,9.621C14.223,9.223,14,8.684,14,8.121v0C14,6.95,14.95,6,16.121,6h0    c0.563,0,1.102,0.223,1.5,0.621L29,18l3,3l-2,2l-1,1L26,21z" style="fill:#E6E9ED;"/><path d="M42,46L42,46c-1.226-2.451-3.731-4-6.472-4h-1.056c-2.741,0-5.246,1.549-6.472,4l0,0h-4    c-1.105,0-2,0.895-2,2v6c0,1.105,0.895,2,2,2h22c1.105,0,2-0.895,2-2v-8H42z" style="fill:#FCD770;"/><ellipse cx="35" cy="49" rx="4" ry="3" style="fill:#FFC729;"/><path d="M38,24h7c1.657,0,3,1.343,3,3v0c0,1.657-1.343,3-3,3H25c-1.657,0-3-1.343-3-3v0    c0-1.657,1.343-3,3-3h7H38z" style="fill:#CF9E76;"/><path d="M26,21l3,3l1-1l2-2l-3-3l-1.687-1.687c-1.396,0.505-2.495,1.604-3,3L26,21z" style="fill:#CCD1D9;"/><path d="M29,24c-1.657,0-3-1.343-3-3v0c0-1.657,1.343-3,3-3h0c1.839,0,3.519-1.039,4.342-2.683l1.173-2.347    l2.503-0.518c1.362,0.644,2.379,1.925,2.64,3.493L40,18h1c1.657,0,3,1.343,3,2.999V21c0,1.657-1.342,3-2.999,3H29z" style="fill:#DFB28B;"/><path d="M33.587,14.825C34.041,14.935,34.513,15,35,15c1.377,0,2.644-0.471,3.658-1.255    c-0.444-0.545-1.002-0.991-1.64-1.293l-2.503,0.518L33.587,14.825z" style="fill:#CF9E76;"/><circle cx="35" cy="9" r="4" style="fill:#FC6E51;"/><path d="M47.816,28H22.184c0.413,1.163,1.512,2,2.816,2h20C46.304,30,47.403,29.163,47.816,28z" style="fill:#B27946;"/><polygon points="47.857,36 48,34 22,34 22.143,36   " style="fill:#CCD1D9;"/></g><g><path d="M49,29h-0.556C48.788,28.409,49,27.732,49,27c0-2.206-1.794-4-4-4h-0.553C44.798,22.396,45,21.716,45,20.999    C45,18.794,43.205,17,41,17h-0.153l-0.203-1.22c-0.226-1.354-0.933-2.563-1.959-3.429C39.494,11.462,40,10.293,40,9    c0-2.757-2.243-5-5-5c-0.051,0-0.098,0.013-0.148,0.015c-0.713-1.131-1.729-2.072-2.983-2.699l-0.422-0.211l-0.894,1.789    l0.422,0.211c0.712,0.356,1.319,0.851,1.8,1.441C31.137,5.368,30,7.046,30,9c0,2.075,1.272,3.857,3.076,4.613l-0.628,1.257    c-0.599,1.197-1.75,1.974-3.06,2.104L18.328,5.914C17.739,5.324,16.955,5,16.121,5C14.4,5,13,6.4,13,8.121    c0,0.822,0.333,1.626,0.914,2.207l11.133,11.133c0.065,0.557,0.24,1.076,0.51,1.539H25c-2.206,0-4,1.794-4,4    c0,0.732,0.212,1.409,0.556,2H21c-1.103,0-2,0.897-2,2v2c0,1.103,0.897,2,2,2h0.069l0.78,10.917C21.325,46.458,21,47.19,21,48v6    c0,1.152,0.66,2.143,1.615,2.645l0.122,1.711C22.923,60.96,25.114,63,27.725,63h14.551c2.611,0,4.801-2.04,4.987-4.644    l0.122-1.711C48.34,56.143,49,55.152,49,54v-9h-0.783l0.714-10H49c1.103,0,2-0.897,2-2v-2C51,29.897,50.103,29,49,29z M32,9    c0-1.195,0.708-2.221,1.721-2.703C33.897,6.838,34,7.409,34,8h2c0-0.651-0.092-1.284-0.251-1.894C37.04,6.441,38,7.606,38,9    c0,1.654-1.346,3-3,3S32,10.654,32,9z M15,8.121C15,7.503,15.503,7,16.121,7c0.3,0,0.581,0.116,0.793,0.328l10.178,10.178    c-0.67,0.368-1.218,0.916-1.586,1.586L15.328,8.914C15.12,8.705,15,8.416,15,8.121z M23,27c0-1.103,0.897-2,2-2h7v-2h-3    c-1.103,0-2-0.897-2-2s0.897-2,2-2c2.231,0,4.238-1.24,5.236-3.236l0.888-1.776c0.652-0.016,1.275-0.149,1.842-0.393    c0.893,0.563,1.529,1.461,1.705,2.515L39.153,19H41c1.103,0,2,0.897,2,2c0,0.534-0.208,1.036-0.585,1.414    C42.037,22.792,41.535,23,41.001,23H38v2h7c1.103,0,2,0.897,2,2s-0.897,2-2,2H25C23.897,29,23,28.103,23,27z M47,47v7    c0,0.552-0.449,1-1,1H24c-0.551,0-1-0.448-1-1v-6c0-0.552,0.449-1,1-1h4.618l0.276-0.553c1.063-2.126,3.2-3.447,5.578-3.447h1.056    c2.377,0,4.515,1.321,5.578,3.447L41.382,47H47z M42.275,61H27.725c-1.566,0-2.881-1.224-2.992-2.786L24.646,57h20.709    l-0.087,1.214C45.156,59.776,43.842,61,42.275,61z M46.212,45h-3.62c-1.483-2.482-4.136-4-7.064-4h-1.056    c-2.928,0-5.581,1.518-7.064,4H24c-0.072,0-0.14,0.016-0.21,0.021L23.074,35h23.852L46.212,45z M49,33H21l-0.001-2H21h4h20h4V33z"/><path d="M35,45c-2.757,0-5,1.794-5,4s2.243,4,5,4s5-1.794,5-4S37.757,45,35,45z M35,51c-1.626,0-3-0.916-3-2s1.374-2,3-2    s3,0.916,3,2S36.626,51,35,51z"/></g></g></svg>