<?xml version="1.0" ?><svg id="Layer_1_1_" style="enable-background:new 0 0 64 64;" version="1.1" viewBox="0 0 64 64" xml:space="preserve" xmlns="http://www.w3.org/2000/svg" xmlns:xlink="http://www.w3.org/1999/xlink"><g><g><polygon points="51,54 51,40 7,40 7,54 14,54 35,54   " style="fill:#FCD770;"/><rect height="10" style="fill:#E6E9ED;" width="16" x="19" y="44"/><circle cx="43" cy="54" r="8" style="fill:#656D78;"/><circle cx="43" cy="54" r="4" style="fill:#838F9B;"/><circle cx="8" cy="56" r="6" style="fill:#656D78;"/><rect height="4" style="fill:#E6E9ED;" width="44" x="7" y="36"/><circle cx="8" cy="56" r="2" style="fill:#838F9B;"/><path d="M51,40h2c1.105,0,2-0.895,2-2v-6h6c0.552,0,1-0.448,1-1v-2c0-0.552-0.448-1-1-1h-8    c-1.105,0-2,0.895-2,2v6l0,0V40z" style="fill:#AAB2BD;"/><rect height="18" style="fill:#DFB28B;" width="4" x="43" y="18"/><rect height="18" style="fill:#DFB28B;" width="4" x="9" y="18"/><path d="M23.444,14H8c-0.552,0-1,0.448-1,1v2c0,0.552,0.448,1,1,1h17.222h5.556H48c0.552,0,1-0.448,1-1v-2    c0-0.552-0.448-1-1-1H32.556H23.444z" style="fill:#DFB28B;"/><path d="M47,14L47,14c-1.805-4.812-6.405-8-11.544-8H33H23h-2.456C15.405,6,10.805,9.188,9,14l0,0H47z" style="fill:#FF826E;"/><path d="M19,10c0,1.479,0.815,2.758,2.011,3.45L21.256,14h13.489l0.245-0.55C36.185,12.758,37,11.479,37,10    c0-1.496-0.834-2.787-2.053-3.473C34.97,6.353,35,6.181,35,6h-2H23h-2c0,0.181,0.03,0.353,0.053,0.527    C19.834,7.213,19,8.504,19,10z" style="fill:#FC6E51;"/><polygon points="32.556,14 23.444,14 21.256,14 23.033,18 25.222,18 30.778,18 32.967,18 34.744,14   " style="fill:#CF9E76;"/><polygon points="33,12 33,13 29,22 27,22 23,13 23,12   " style="fill:#F0D0B4;"/><path d="M25,8c-1.105,0-2-0.895-2-2v0c0-1.105,0.895-2,2-2h0c1.226,0,2.346-0.693,2.894-1.789L28,2h0    c1.226,0,2.346,0.693,2.894,1.789L31,4h0c1.105,0,2,0.895,2,2v0c0,1.105-0.895,2-2,2H25z" style="fill:#FCD770;"/><path d="M29,8h4c1.105,0,2,0.895,2,2v0c0,1.105-0.895,2-2,2H23c-1.105,0-2-0.895-2-2v0c0-1.105,0.895-2,2-2    h4H29z" style="fill:#FFC729;"/><path d="M25,8c-1.105,0-2-0.895-2-2v0c0-1.105,0.895-2,2-2h0c1.226,0,2.346-0.693,2.894-1.789L28,2h0    c1.226,0,2.346,0.693,2.894,1.789L31,4h0c1.105,0,2,0.895,2,2v0c0,1.105-0.895,2-2,2H25z" style="fill:#FFC729;"/><rect height="4" style="fill:#B27946;" width="8" x="17" y="32"/><rect height="4" style="fill:#DFB28B;" width="4" x="19" y="28"/><rect height="4" style="fill:#B27946;" width="8" x="31" y="32"/><rect height="4" style="fill:#DFB28B;" width="4" x="33" y="28"/><rect height="2" style="fill:#CF9E76;" width="4" x="43" y="18"/><rect height="2" style="fill:#CF9E76;" width="4" x="9" y="18"/><rect height="2" style="fill:#CF9E76;" width="4" x="9" y="34"/><rect height="2" style="fill:#CF9E76;" width="4" x="43" y="34"/><rect height="2" style="fill:#FFC729;" width="44" x="7" y="40"/></g><g><path d="M43,49c-2.757,0-5,2.243-5,5s2.243,5,5,5s5-2.243,5-5S45.757,49,43,49z M43,57c-1.654,0-3-1.346-3-3s1.346-3,3-3    s3,1.346,3,3S44.654,57,43,57z"/><path d="M8,53c-1.654,0-3,1.346-3,3s1.346,3,3,3s3-1.346,3-3S9.654,53,8,53z M8,57c-0.551,0-1-0.448-1-1s0.449-1,1-1s1,0.448,1,1    S8.551,57,8,57z"/><path d="M61,27h-8c-1.654,0-3,1.346-3,3v5h-2V19c1.103,0,2-0.897,2-2v-2c0-1.103-0.897-2-2-2h-0.336c-2.104-4.81-6.919-8-12.208-8    h-1.629c-0.343-0.968-1.168-1.71-2.187-1.932C30.878,1.785,29.51,1,28,1h-0.618L27,1.764C26.619,2.526,25.853,3,25,3    c-1.302,0-2.402,0.839-2.816,2h-1.64C15.255,5,10.44,8.19,8.336,13H8c-1.103,0-2,0.897-2,2v2c0,1.103,0.897,2,2,2v16H6v4v2v8.295    C3.112,50.158,1,52.836,1,56c0,3.859,3.14,7,7,7s7-3.141,7-7c0-0.34-0.033-0.672-0.08-1h19.139c0.5,4.493,4.317,8,8.941,8    c4.962,0,9-4.037,9-9V41h1c1.654,0,3-1.346,3-3v-5h5c1.103,0,2-0.897,2-2v-2C63,27.897,62.103,27,61,27z M46,35h-2V19h2V35z     M36,31h-2v-2h2V31z M38,33v2h-6v-2H38z M38,31v-4h-6v4h-2v4h-4v-4h-2v-4h-6v4h-2v4h-2V19h10.572l1.778,4h3.3l1.778-4H42v16h-2v-4    H38z M22,31h-2v-2h2V31z M24,33v2h-6v-2H24z M28.35,21h-0.7l-3.556-8h7.812L28.35,21z M48,17H32.316l0.889-2H48V17z M45.444,13H34    v-0.184c1.161-0.414,2-1.514,2-2.816c0-1.383-0.945-2.539-2.22-2.884C33.795,7.079,33.802,7.038,33.816,7h1.64    C39.651,7,43.495,9.362,45.444,13z M25,5c1.456,0,2.779-0.729,3.555-1.932C29.175,3.226,29.704,3.644,30,4.236L30.382,5H31    c0.551,0,1,0.448,1,1s-0.449,1-1,1h-2v2h4c0.551,0,1,0.448,1,1s-0.449,1-1,1H23c-0.551,0-1-0.448-1-1s0.449-1,1-1h4V7h-2    c-0.551,0-1-0.448-1-1S24.449,5,25,5z M20.544,7h1.64c0.014,0.038,0.021,0.079,0.036,0.116C20.945,7.461,20,8.617,20,10    c0,1.302,0.839,2.402,2,2.816V13H10.556C12.505,9.362,16.349,7,20.544,7z M8,15h14.795l0.889,2H8V15z M10,19h2v16h-2V19z M8,37h42    v2H8V37z M8,61c-2.757,0-5-2.243-5-5s2.243-5,5-5s5,2.243,5,5S10.757,61,8,61z M34,53H20v-8h14V53z M43,61c-3.86,0-7-3.141-7-7    s3.14-7,7-7s7,3.141,7,7S46.86,61,43,61z M43,45c-2.826,0-5.349,1.312-7,3.356V43H18v10h-3.685c-1.126-2.361-3.53-4-6.315-4v-8h42    v7.356C48.349,46.312,45.826,45,43,45z M61,31h-7v7c0,0.552-0.449,1-1,1h-1v-3v-1v-5c0-0.552,0.449-1,1-1h8V31z"/><rect height="2" width="10" x="22" y="47"/></g></g></svg>