<?xml version="1.0" ?><svg id="Layer_1_1_" style="enable-background:new 0 0 64 64;" version="1.1" viewBox="0 0 64 64" xml:space="preserve" xmlns="http://www.w3.org/2000/svg" xmlns:xlink="http://www.w3.org/1999/xlink"><g><g><path d="M41.824,53.88C40.944,58.504,36.88,62,32,62h0c-4.88,0-8.944-3.496-9.824-8.12l0-43.76    C23.056,5.496,27.12,2,32,2h0c4.88,0,8.944,3.496,9.824,8.12L41.824,53.88z" style="fill:#DFB28B;"/><path d="M38.781,10.343C38.226,10.13,37.629,10,37,10c-0.167,0-0.324,0.033-0.487,0.049    C35.39,8.77,33.751,8,32,8c-1.75,0-3.39,0.77-4.513,2.049C27.324,10.033,27.167,10,27,10c-0.629,0-1.226,0.13-1.781,0.343    c-0.587-0.928-1.469-1.646-2.511-2.031c-0.23,0.579-0.412,1.182-0.531,1.807l0,43.76c0.119,0.626,0.301,1.229,0.531,1.808    c1.043-0.385,1.925-1.103,2.511-2.031c0.497,0.191,1.03,0.301,1.588,0.323C27.856,55.798,29.815,57,32,57    c2.187,0,4.145-1.201,5.193-3.02c0.558-0.022,1.091-0.133,1.588-0.323c0.587,0.928,1.469,1.646,2.511,2.031    c0.23-0.579,0.412-1.182,0.531-1.808V10.12c-0.119-0.626-0.301-1.229-0.531-1.808C40.25,8.697,39.368,9.415,38.781,10.343z" style="fill:#CF9E76;"/><path d="M18,49.929V51c0,1.657,1.343,3,3,3h0c1.657,0,3-1.343,3-3v-2.151V15.431V13c0-1.657-1.343-3-3-3h0    c-1.657,0-3,1.343-3,3v1.088V49.929z" style="fill:#A0D468;"/><path d="M28.081,51.806C28.454,53.629,30.067,55,32,55c1.936,0,3.551-1.375,3.92-3.202l-0.282-39.462    C35.007,10.957,33.615,10,32,10c-1.614,0-3.005,0.956-3.637,2.333L28.081,51.806z" style="fill:#FC6E51;"/><path d="M35.65,13.974C35,14.23,34.355,14.5,33.727,14.803l-1.726,0.832l-1.727-0.832    c-0.628-0.303-1.272-0.573-1.922-0.828l-0.26,36.502c0.453-0.155,0.904-0.32,1.351-0.499L32,48.954l2.559,1.025    c0.448,0.179,0.899,0.344,1.352,0.499L35.65,13.974z" style="fill:#E9573F;"/><path d="M46,49.929V51c0,1.657-1.343,3-3,3h0c-1.657,0-3-1.343-3-3v-2.151V15.431V13c0-1.657,1.343-3,3-3h0    c1.657,0,3,1.343,3,3v1.087V49.929z" style="fill:#A0D468;"/><path d="M40,48.849V49c0,1.657-1.343,3-3,3h0c-1.657,0-3-1.343-3-3v-1.545V17.182V15c0-1.657,1.343-3,3-3h0    c1.657,0,3,1.343,3,3v0.431V48.849z" style="fill:#A0D468;"/><path d="M24,48.849V49c0,1.657,1.343,3,3,3h0c1.657,0,3-1.343,3-3v-1.545V17.182V15c0-1.657-1.343-3-3-3h0    c-1.657,0-3,1.343-3,3v0.431V48.849z" style="fill:#A0D468;"/><path d="M34,15v2.182v30.273V49c0,0.28,0.051,0.547,0.123,0.804l0.436,0.174    c1.414,0.565,2.861,1.005,4.331,1.334C39.562,50.763,40,49.937,40,49v-0.151V15.431V15c0-0.835-0.342-1.588-0.892-2.132    c-1.745,0.438-3.448,1.038-5.075,1.797C34.021,14.777,34,14.885,34,15z" style="fill:#8CC152;"/><path d="M45.816,52C45.928,51.686,46,51.353,46,51v-1.071V14.087V13c0-0.351-0.072-0.682-0.182-0.995    c-1.94,0.013-3.881,0.232-5.782,0.643C40.022,12.765,40,12.879,40,13v2.431v33.418V51c0,0.188,0.022,0.371,0.055,0.55    C41.7,51.845,43.371,52,45.061,52H45.816z" style="fill:#8CC152;"/><path d="M32.001,17.854l2.594-1.25C38.152,14.89,42.051,14,46,14h0c1.105,0,2,0.895,2,2v32    c0,1.105-0.895,2-2,2h-0.94c-3.343,0-6.655-0.638-9.759-1.879l-3.301-1.32L32.001,17.854z" style="fill:#F0D0B4;"/><polygon points="32,17.854 32.001,46.8 34.692,47.877 36,47.354 36,17.562 34.304,16.744   " style="fill:#ECC19C;"/><path d="M30,47.455V17.182V15c0-0.115-0.021-0.223-0.034-0.335c-1.627-0.76-3.33-1.359-5.075-1.797    C24.342,13.412,24,14.165,24,15v0.431v33.418V49c0,0.937,0.438,1.763,1.111,2.313c1.47-0.329,2.917-0.77,4.331-1.335l0.436-0.174    C29.949,49.546,30,49.28,30,49V47.455z" style="fill:#8CC152;"/><path d="M18,13v1.088v35.841V51c0,0.353,0.072,0.686,0.184,1h0.756c1.69,0,3.361-0.155,5.005-0.451    C23.978,51.371,24,51.188,24,51v-2.151V15.431V13c0-0.121-0.022-0.235-0.035-0.352c-1.901-0.411-3.843-0.63-5.782-0.643    C18.072,12.318,18,12.649,18,13z" style="fill:#8CC152;"/><path d="M34,18.818l-4.595-2.214C25.848,14.89,21.949,14,18,14h0c-1.105,0-2,0.895-2,2v32    c0,1.105,0.895,2,2,2h0.94c3.343,0,6.655-0.638,9.759-1.879L34,46V18.818z" style="fill:#F0D0B4;"/></g><g><path d="M47,13.184V13c0-2.206-1.794-4-4-4c-0.139,0-0.27,0.027-0.405,0.041C41.284,4.331,36.968,1,32,1    s-9.284,3.331-10.595,8.041C21.27,9.027,21.139,9,21,9c-2.206,0-4,1.794-4,4v0.184c-1.161,0.414-2,1.514-2,2.816v32    c0,1.302,0.839,2.402,2,2.816V51c0,2.206,1.794,4,4,4c0.139,0,0.27-0.027,0.405-0.041C22.715,59.669,27.032,63,32,63    c4.968,0,9.284-3.331,10.595-8.041C42.73,54.973,42.861,55,43,55c2.206,0,4-1.794,4-4v-0.184c1.161-0.414,2-1.514,2-2.816V16    C49,14.698,48.161,13.598,47,13.184z M45,13v0.029c-1.341,0.05-2.678,0.199-4,0.447V13c0-1.103,0.897-2,2-2S45,11.897,45,13z     M31,16.263V15c0-1.16-0.504-2.196-1.294-2.928C30.268,11.405,31.104,11,32,11c0.896,0,1.732,0.406,2.294,1.073    C33.504,12.804,33,13.84,33,15v1.263l-0.999,0.481L31,16.263z M29,15v0.328c-1.206-0.531-2.449-0.977-3.722-1.328    c0.347-0.595,0.985-1,1.722-1C28.103,13,29,13.897,29,15z M35,15c0-1.103,0.897-2,2-2c0.737,0,1.375,0.405,1.722,1    c-1.272,0.352-2.516,0.798-3.722,1.329V15z M32,3c4.119,0,7.686,2.8,8.706,6.733c-0.677,0.477-1.188,1.159-1.466,1.954    C38.6,11.254,37.829,11,37,11c-0.32,0-0.628,0.048-0.927,0.119C35.147,9.813,33.635,9,32,9c-1.635,0-3.147,0.813-4.074,2.119    C27.628,11.048,27.32,11,27,11c-0.829,0-1.6,0.254-2.239,0.688c-0.279-0.795-0.79-1.478-1.466-1.954C24.314,5.8,27.881,3,32,3z     M21,11c1.103,0,2,0.897,2,2v0.475c-1.322-0.247-2.659-0.396-4-0.446V13C19,11.897,19.897,11,21,11z M17,16c0-0.552,0.449-1,1-1    c3.775,0,7.569,0.866,10.971,2.505L33,19.446v25.877l-4.673,1.869C25.328,48.392,22.17,49,18.94,49H18c-0.551,0-1-0.448-1-1V16z     M27,51c-0.642,0-1.208-0.31-1.575-0.782c1.208-0.296,2.398-0.677,3.567-1.14C28.95,50.144,28.076,51,27,51z M31,49v-0.723l1-0.4    l1,0.4V49c0,1.352,0.678,2.545,1.708,3.269C34.223,53.3,33.18,54,32,54c-1.179,0-2.223-0.7-2.708-1.731    C30.322,51.545,31,50.352,31,49z M35.008,49.079c1.168,0.463,2.358,0.843,3.567,1.14C38.208,50.69,37.642,51,37,51    C35.924,51,35.05,50.144,35.008,49.079z M19,51v-0.001c1.347-0.003,2.682-0.106,4-0.304V51c0,1.103-0.897,2-2,2S19,52.103,19,51z     M32,61c-4.119,0-7.687-2.8-8.706-6.733c0.677-0.477,1.188-1.159,1.466-1.954C25.4,52.746,26.171,53,27,53    c0.14,0,0.273-0.027,0.409-0.041C28.183,54.765,29.976,56,32,56c2.026,0,3.817-1.235,4.59-3.041C36.727,52.973,36.86,53,37,53    c0.829,0,1.6-0.254,2.239-0.688c0.279,0.795,0.79,1.478,1.466,1.954C39.686,58.2,36.119,61,32,61z M43,53c-1.103,0-2-0.897-2-2    v-0.306c1.318,0.198,2.653,0.301,4,0.304V51C45,52.103,44.103,53,43,53z M47,48c0,0.552-0.449,1-1,1h-0.94    c-3.23,0-6.388-0.608-9.387-1.808L34.693,46.8L35,46.677V18.19l-0.696-0.336l0.725-0.349C38.431,15.866,42.225,15,46,15    c0.551,0,1,0.448,1,1V48z"/><rect height="2" width="2" x="19" y="20"/><rect height="2" width="2" x="24" y="26"/><rect height="2" width="2" x="24" y="34"/><rect height="2" width="2" x="19" y="45"/><rect height="2" width="2" x="28" y="40"/><rect height="2" width="2" x="19" y="31"/><rect height="2" width="2" x="28" y="21"/><rect height="2" width="2" x="29" y="31"/><rect height="2" width="2" x="21" y="39"/><rect height="2" width="2" x="37" y="20"/><rect height="2" width="2" x="39" y="26"/><rect height="2" width="2" x="42" y="34"/><rect height="2" width="2" x="37" y="44"/><rect height="2" width="2" x="43" y="42"/><rect height="2" width="2" x="37" y="31"/><rect height="2" width="2" x="43" y="21"/><rect height="2" width="2" x="39" y="39"/></g></g></svg>