<?xml version="1.0" ?><svg id="Layer_1_1_" style="enable-background:new 0 0 64 64;" version="1.1" viewBox="0 0 64 64" xml:space="preserve" xmlns="http://www.w3.org/2000/svg" xmlns:xlink="http://www.w3.org/1999/xlink"><g><g><rect height="12" style="fill:#B27946;" width="4" x="47" y="50"/><rect height="12" style="fill:#B27946;" width="4" x="14" y="50"/><path d="M57,42H41c-2.761,0-5-2.239-5-5v0c0-2.761,2.239-5,5-5h16c2.761,0,5,2.239,5,5v0    C62,39.761,59.761,42,57,42z" style="fill:#FC6E51;"/><rect height="10" style="fill:#ECC19C;" width="14" x="42" y="32"/><path d="M57,28H41c-2.761,0-5-2.239-5-5v0c0-2.761,2.239-5,5-5h16c2.761,0,5,2.239,5,5v0    C62,25.761,59.761,28,57,28z" style="fill:#FC6E51;"/><rect height="10" style="fill:#ECC19C;" width="14" x="42" y="18"/><path d="M57,14H41c-2.761,0-5-2.239-5-5v0c0-2.761,2.239-5,5-5h16c2.761,0,5,2.239,5,5v0    C62,11.761,59.761,14,57,14z" style="fill:#FC6E51;"/><rect height="10" style="fill:#ECC19C;" width="14" x="42" y="4"/><path d="M30,43L30,43c0-1.616-0.956-3.067-2.426-3.738c-0.57-0.26-1.094-0.545-1.386-0.962    c-0.829-1.182-0.423-3.593-1.568-4.445c-1.145-0.852-3.338,0.229-4.708-0.225C18.574,33.187,17.466,31,16,31    c-1.466,0-2.574,2.187-3.912,2.63c-1.371,0.454-3.563-0.627-4.708,0.225c-1.145,0.852-0.74,3.263-1.569,4.445    c-0.292,0.417-0.816,0.702-1.386,0.962C2.956,39.933,2,41.384,2,43v0H30z" style="fill:#FCD770;"/><path d="M30,25L30,25c0-1.616-0.956-3.067-2.426-3.738c-0.57-0.26-1.094-0.545-1.386-0.962    c-0.829-1.182-0.423-3.593-1.568-4.445c-1.145-0.852-3.338,0.229-4.708-0.225C18.574,15.187,17.466,13,16,13    c-1.466,0-2.574,2.187-3.912,2.63c-1.371,0.454-3.563-0.627-4.708,0.225c-1.145,0.852-0.74,3.263-1.569,4.445    c-0.292,0.417-0.816,0.702-1.386,0.962C2.956,21.933,2,23.384,2,25v0H30z" style="fill:#FCD770;"/></g><g><rect height="2" width="2" x="45" y="35"/><rect height="2" width="2" x="51" y="37"/><path d="M57,29c3.309,0,6-2.691,6-6s-2.691-6-6-6h-7v-2h7c3.309,0,6-2.691,6-6s-2.691-6-6-6h-7V1h-2v2h-7c-3.309,0-6,2.691-6,6    s2.691,6,6,6h7v2h-7c-3.309,0-6,2.691-6,6s2.691,6,6,6h7v2h-7c-3.309,0-6,2.691-6,6s2.691,6,6,6h7v6h-2v14h6V49h-2v-6h7    c3.309,0,6-2.691,6-6s-2.691-6-6-6h-7v-2H57z M43,13V5h12v8H43z M61,9c0,2.206-1.794,4-4,4V5C59.206,5,61,6.794,61,9z M37,9    c0-2.206,1.794-4,4-4v8C38.794,13,37,11.206,37,9z M50,61h-2V51h2V61z M55,33v8H43v-8H55z M37,37c0-2.206,1.794-4,4-4v8    C38.794,41,37,39.206,37,37z M61,37c0,2.206-1.794,4-4,4v-8C59.206,33,61,34.794,61,37z M43,27v-8h12v8H43z M61,23    c0,2.206-1.794,4-4,4v-8C59.206,19,61,20.794,61,23z M37,23c0-2.206,1.794-4,4-4v8C38.794,27,37,25.206,37,23z"/><rect height="2" width="2" x="45" y="21"/><rect height="2" width="2" x="51" y="23"/><rect height="2" width="2" x="45" y="7"/><rect height="2" width="2" x="51" y="9"/><rect height="2" width="2" x="11" y="38"/><rect height="2" width="2" x="16" y="35"/><rect height="2" width="2" x="20" y="38"/><path d="M27.989,20.352c-0.239-0.109-0.799-0.365-0.982-0.626c-0.235-0.336-0.344-0.998-0.448-1.639    c-0.178-1.086-0.379-2.318-1.342-3.034c-0.962-0.716-2.2-0.555-3.292-0.413c-0.644,0.084-1.308,0.171-1.699,0.041    c-0.365-0.121-0.834-0.577-1.287-1.019c-0.566-0.551-1.188-1.148-1.938-1.454V9h-2v3.208c-0.75,0.306-1.372,0.903-1.938,1.454    c-0.453,0.441-0.922,0.897-1.287,1.019c-0.388,0.129-1.054,0.043-1.699-0.041c-1.092-0.142-2.33-0.303-3.292,0.413    C5.82,15.769,5.619,17,5.441,18.087c-0.104,0.641-0.213,1.302-0.449,1.639c-0.183,0.261-0.742,0.517-0.981,0.626    C2.182,21.187,1,23.011,1,25v1h14v4.208c-0.75,0.306-1.372,0.903-1.938,1.454c-0.453,0.441-0.922,0.897-1.287,1.019    c-0.388,0.128-1.054,0.043-1.699-0.041c-1.092-0.143-2.33-0.303-3.292,0.413C5.82,33.769,5.619,35,5.441,36.087    c-0.104,0.641-0.213,1.302-0.449,1.639c-0.183,0.261-0.742,0.517-0.981,0.626C2.182,39.187,1,41.011,1,43v1h14v5h-2v14h6V49h-2v-5    h14v-1c0-1.989-1.182-3.813-3.011-4.648c-0.239-0.109-0.799-0.365-0.982-0.626c-0.235-0.336-0.344-0.998-0.448-1.639    c-0.178-1.086-0.379-2.318-1.342-3.034c-0.962-0.716-2.2-0.556-3.292-0.413c-0.644,0.083-1.308,0.17-1.699,0.041    c-0.365-0.121-0.834-0.577-1.287-1.019c-0.566-0.551-1.188-1.148-1.938-1.454V26h14v-1C31,23.011,29.818,21.187,27.989,20.352z     M17,61h-2V51h2V61z M19.597,34.579c0.824,0.272,1.722,0.156,2.586,0.044c0.715-0.094,1.527-0.199,1.841,0.034    s0.445,1.04,0.562,1.752c0.141,0.862,0.286,1.753,0.784,2.464c0.436,0.622,1.118,0.991,1.79,1.298    c0.799,0.365,1.396,1.035,1.671,1.829H17h-2H3.17c0.275-0.793,0.872-1.464,1.671-1.829c0.672-0.307,1.354-0.676,1.789-1.297    c0.499-0.711,0.645-1.603,0.785-2.464c0.116-0.712,0.248-1.519,0.562-1.752s1.126-0.128,1.841-0.034    c0.864,0.112,1.762,0.229,2.586-0.044c0.803-0.266,1.438-0.885,2.053-1.484C14.983,32.582,15.581,32,16,32    s1.017,0.582,1.544,1.095C18.158,33.694,18.794,34.313,19.597,34.579z M3.17,24c0.275-0.793,0.872-1.464,1.671-1.829    c0.672-0.307,1.354-0.676,1.789-1.297c0.499-0.711,0.645-1.603,0.785-2.464c0.116-0.712,0.248-1.519,0.562-1.752    c0.313-0.233,1.126-0.128,1.841-0.034c0.864,0.112,1.762,0.229,2.586-0.044c0.803-0.266,1.438-0.885,2.053-1.484    C14.983,14.582,15.581,14,16,14s1.017,0.582,1.544,1.095c0.614,0.599,1.25,1.218,2.053,1.484c0.824,0.273,1.722,0.156,2.586,0.044    c0.715-0.094,1.527-0.199,1.841,0.034c0.313,0.233,0.445,1.04,0.562,1.752c0.141,0.862,0.286,1.753,0.784,2.464    c0.436,0.622,1.118,0.991,1.79,1.298c0.799,0.365,1.396,1.035,1.671,1.829H3.17z"/><rect height="2" width="2" x="11" y="20"/><rect height="2" width="2" x="16" y="17"/><rect height="2" width="2" x="20" y="20"/></g></g></svg>