<?xml version="1.0" ?><svg id="Layer_1_1_" style="enable-background:new 0 0 64 64;" version="1.1" viewBox="0 0 64 64" xml:space="preserve" xmlns="http://www.w3.org/2000/svg" xmlns:xlink="http://www.w3.org/1999/xlink"><g><g><path d="M19.876,44.013L19,30h26l-0.876,14.013L43.5,54l-0.383,6.125C43.051,61.179,42.177,62,41.121,62    H22.879c-1.056,0-1.93-0.821-1.996-1.875L20.5,54L19.876,44.013z" style="fill:#FCD770;"/><polygon points="19.125,32 44.875,32 45,30 19,30   " style="fill:#FFC729;"/><path d="M29.383,16l2.661-12.419C32.242,2.659,33.057,2,34,2h11v4h-9.383l-2.143,10L33,17h-4L29.383,16z" style="fill:#CF9E76;"/><path d="M33.474,16l0.428-1.996c-0.034,0-0.067-0.004-0.1-0.004h-3.604c-0.131,0-0.26,0.014-0.391,0.017    L29.383,16L29,17h4L33.474,16z" style="fill:#B27946;"/><path d="M46,26L46,26c-1.163-5.815-6.268-10-12.198-10h-3.604C24.268,16,19.163,20.185,18,26l0,0H46z" style="fill:#E6E9ED;"/><path d="M17,26h30c0.552,0,1,0.448,1,1v2c0,0.552-0.448,1-1,1H17c-0.552,0-1-0.448-1-1v-2    C16,26.448,16.448,26,17,26z" style="fill:#E6E9ED;"/><circle cx="32" cy="45" r="9" style="fill:#FFEAA7;"/><path d="M18,26h28c-0.138-0.692-0.336-1.359-0.581-2H18.581C18.336,24.641,18.138,25.308,18,26z" style="fill:#CCD1D9;"/><path d="M31,54h13c1.105,0,2-0.895,2-2v-6c0-1.105-0.895-2-2-2h-8l-4,4l-1,1V54z" style="fill:#DFB28B;"/><polygon points="33.206,46.794 32,48 31,49 31,54 39.69,54   " style="fill:#CF9E76;"/><path d="M37,54l-9-10h-8c-1.105,0-2,0.895-2,2v6c0,1.105,0.895,2,2,2H37z" style="fill:#DFB28B;"/></g><path d="M47,25h-0.218c-1.472-5.549-6.357-9.574-12.08-9.96L36.426,7H46V1H34c-1.406,0-2.64,0.998-2.934,2.372L28.55,15.114   c-5.397,0.671-9.925,4.58-11.333,9.886H17c-1.103,0-2,0.897-2,2v2c0,1.103,0.897,2,2,2h1.061l0.765,12.24   C17.754,43.698,17,44.762,17,46v6c0,1.503,1.114,2.739,2.558,2.955l0.327,5.231C19.982,61.765,21.298,63,22.879,63h18.242   c1.581,0,2.896-1.235,2.994-2.812l0.327-5.232C45.886,54.739,47,53.503,47,52v-6c0-1.238-0.754-2.302-1.826-2.76L45.939,31H47   c1.103,0,2-0.897,2-2v-2C49,25.897,48.103,25,47,25z M33.021,3.79C33.12,3.333,33.531,3,34,3h10v2h-9.191l-2.142,10H30.62   L33.021,3.79z M30.198,17h3.604c5.017,0,9.416,3.3,10.902,8H19.296C20.782,20.3,25.182,17,30.198,17z M19,52v-6   c0-0.552,0.448-1,1-1h7.555l7.2,8H20C19.448,53,19,52.552,19,52z M24.091,43c0.558-3.386,3.887-6,7.909-6s7.351,2.614,7.909,6   h-4.323l-3.758,3.758L28.445,43H24.091z M41.121,61H22.879c-0.527,0-0.966-0.411-0.998-0.938L21.564,55h20.871l-0.316,5.063   C42.087,60.589,41.648,61,41.121,61z M45,52c0,0.552-0.448,1-1,1h-6.555l-4.278-4.753L36.414,45H44c0.552,0,1,0.448,1,1V52z    M43.185,43h-1.251c-0.555-4.493-4.797-8-9.934-8s-9.379,3.507-9.934,8h-1.251l-0.75-12h23.871L43.185,43z M47,29h-0.936H17.936H17   l-0.001-2H17h30V29z"/></g></svg>