<?xml version="1.0" ?><svg id="Layer_1_1_" style="enable-background:new 0 0 64 64;" version="1.1" viewBox="0 0 64 64" xml:space="preserve" xmlns="http://www.w3.org/2000/svg" xmlns:xlink="http://www.w3.org/1999/xlink"><g><g><path d="M26,58h16.674h12.651H60c1.105,0,2-0.895,2-2V32c0-1.105-0.895-2-2-2h-2.857H26V58z" style="fill:#FF826E;"/><polygon points="60,36 60,32.72 60,32 59.794,32 59.223,30 57.143,30 26,30 26,54 60,54   " style="fill:#FC6E51;"/><path d="M55.326,58H60c1.105,0,2-0.895,2-2v-4H25v6h17.674H55.326z" style="fill:#E6E9ED;"/><rect height="6" style="fill:#CCD1D9;" width="4" x="29" y="20"/><rect height="6" style="fill:#CCD1D9;" width="4" x="49" y="20"/><rect height="10" style="fill:#FF826E;" width="30" x="26" y="10"/><path d="M26,30H13.883c-1.722,0-3.25,1.102-3.795,2.735L8,39l-3.265,1.088C3.102,40.633,2,42.161,2,43.883    V56c0,1.105,0.895,2,2,2h22V30z" style="fill:#FF826E;"/><path d="M8.407,52H2v4c0,1.105,0.86,2,1.92,2H27v-6H8.72H8.407z" style="fill:#CCD1D9;"/><path d="M22,52V34h-7.279c-0.43,0-0.813,0.275-0.949,0.684l-1.721,5.162C12.017,39.948,12,40.055,12,40.162    V52H22z" style="fill:#E9573F;"/><circle cx="31" cy="4" r="2" style="fill:#FCD770;"/><circle cx="51" cy="4" r="2" style="fill:#FCD770;"/><circle cx="41" cy="4" r="2" style="fill:#FCD770;"/><rect height="18" style="fill:#AAB2BD;" width="32" x="26" y="34"/><path d="M26,38.46c1.063,0.954,2.462,1.54,4,1.54s2.937-0.586,4-1.54c1.063,0.954,2.462,1.54,4,1.54    s2.937-0.586,4-1.54c1.063,0.954,2.462,1.54,4,1.54s2.937-0.586,4-1.54c1.063,0.954,2.462,1.54,4,1.54s2.937-0.586,4-1.54V34H26    V38.46z" style="fill:#969FAA;"/><path d="M42,34c0,2.209-1.791,4-4,4h0c-2.209,0-4-1.791-4-4H42z" style="fill:#FCD770;"/><path d="M34,34c0,2.209-1.791,4-4,4h0c-2.209,0-4-1.791-4-4H34z" style="fill:#FC6E51;"/><path d="M58,34c0,2.209-1.791,4-4,4h0c-2.209,0-4-1.791-4-4H58z" style="fill:#FCD770;"/><path d="M50,34c0,2.209-1.791,4-4,4h0c-2.209,0-4-1.791-4-4H50z" style="fill:#FC6E51;"/><rect height="8" style="fill:#CF9E76;" width="32" x="26" y="44"/><circle cx="15" cy="55" r="7" style="fill:#656D78;"/><circle cx="15" cy="55" r="3" style="fill:#838F9B;"/><circle cx="49" cy="55" r="7" style="fill:#656D78;"/><circle cx="49" cy="55" r="3" style="fill:#838F9B;"/><path d="M14.721,34c-0.43,0-0.813,0.275-0.949,0.684l-1.721,5.162c-0.017,0.05-0.016,0.103-0.025,0.154H22    v-6H14.721z" style="fill:#E6E9ED;"/><circle cx="32" cy="15" r="2" style="fill:#FCD770;"/><polygon points="56,26 28,26 26,33 26,34 34,34 50,34 58,34 58,33   " style="fill:#E6E9ED;"/><rect height="2" style="fill:#AAB2BD;" width="4" x="29" y="24"/><rect height="2" style="fill:#AAB2BD;" width="4" x="49" y="24"/><rect height="2" style="fill:#AAB2BD;" width="4" x="29" y="20"/><rect height="2" style="fill:#AAB2BD;" width="4" x="49" y="20"/><rect height="22" style="fill:#FC6E51;" width="2" x="24" y="30"/><rect height="2" style="fill:#969FAA;" width="32" x="26" y="42"/></g><g><path d="M15,51c-2.206,0-4,1.794-4,4s1.794,4,4,4s4-1.794,4-4S17.206,51,15,51z M15,57c-1.103,0-2-0.897-2-2s0.897-2,2-2    s2,0.897,2,2S16.103,57,15,57z"/><path d="M49,51c-2.206,0-4,1.794-4,4s1.794,4,4,4s4-1.794,4-4S51.206,51,49,51z M49,57c-1.103,0-2-0.897-2-2s0.897-2,2-2    s2,0.897,2,2S50.103,57,49,57z"/><path d="M60,29h-2.123l-1.123-4H54v-4h3V9h-5V6.816C53.161,6.402,54,5.302,54,4c0-1.654-1.346-3-3-3s-3,1.346-3,3    c0,1.302,0.839,2.402,2,2.816V9h-8V6.816C43.161,6.402,44,5.302,44,4c0-1.654-1.346-3-3-3s-3,1.346-3,3    c0,1.302,0.839,2.402,2,2.816V9h-8V6.816C33.161,6.402,34,5.302,34,4c0-1.654-1.346-3-3-3s-3,1.346-3,3    c0,1.302,0.839,2.402,2,2.816V9h-5v12h3v4h-0.754l-1.143,4h-12.22c-2.155,0-4.062,1.374-4.743,3.418l-1.93,5.791l-2.791,0.93    C2.374,39.821,1,41.728,1,43.883V56c0,1.654,1.346,3,3,3h4.082c1.386,2.387,3.964,4,6.918,4s5.532-1.613,6.918-4h20.165    c1.386,2.387,3.964,4,6.918,4s5.532-1.613,6.918-4H60c1.654,0,3-1.346,3-3V32C63,30.346,61.654,29,60,29z M51,3    c0.551,0,1,0.449,1,1s-0.449,1-1,1s-1-0.449-1-1S50.449,3,51,3z M41,3c0.551,0,1,0.449,1,1s-0.449,1-1,1s-1-0.449-1-1    S40.449,3,41,3z M31,3c0.551,0,1,0.449,1,1s-0.449,1-1,1s-1-0.449-1-1S30.449,3,31,3z M60,31c0.551,0,1,0.449,1,1v19h-2V34v-1    l-0.561-2H60z M49,47c-2.953,0-5.532,1.613-6.918,4H27v-6h30v6h-1.082C54.532,48.613,51.953,47,49,47z M30,39    c1.641,0,3.088-0.806,4-2.031C34.912,38.194,36.359,39,38,39s3.088-0.806,4-2.031C42.912,38.194,44.359,39,46,39    s3.088-0.806,4-2.031C50.912,38.194,52.359,39,54,39c1.13,0,2.162-0.391,3-1.026V43H27v-5.026C27.838,38.609,28.87,39,30,39z     M54,37c-1.302,0-2.402-0.839-2.816-2h5.631C56.402,36.161,55.302,37,54,37z M46,37c-1.302,0-2.402-0.839-2.816-2h5.631    C48.402,36.161,47.302,37,46,37z M38,37c-1.302,0-2.402-0.839-2.816-2h5.631C40.402,36.161,39.302,37,38,37z M30,37    c-1.302,0-2.402-0.839-2.816-2h5.631C32.402,36.161,31.302,37,30,37z M52,25h-2v-4h2V25z M48,21v4H34v-4H48z M27,11h28v8H27V11z     M30,21h2v4h-2V21z M28.754,27h26.491l1.714,6H27.04L28.754,27z M5.051,41.037l3.739-1.247l2.247-6.739    C11.446,31.824,12.59,31,13.883,31h11.649l-0.493,1.725L25.03,33H25v18h-2V33h-8.279c-0.862,0-1.625,0.549-1.897,1.367    l-1.72,5.162C11.035,39.733,11,39.946,11,40.162v7.92C9.791,48.784,8.784,49.791,8.082,51H3v-7.117    C3,42.59,3.824,41.446,5.051,41.037z M21,39h-7.612l1.333-4H21V39z M13,41h8v8.726C19.533,48.059,17.39,47,15,47    c-0.692,0-1.359,0.097-2,0.263V41z M4,57c-0.551,0-1-0.449-1-1v-3h4.263C7.097,53.641,7,54.308,7,55s0.097,1.359,0.263,2H4z     M15,61c-3.309,0-6-2.691-6-6s2.691-6,6-6s6,2.691,6,6S18.309,61,15,61z M22.737,57C22.903,56.359,23,55.692,23,55    s-0.097-1.359-0.263-2h18.527C41.097,53.641,41,54.308,41,55s0.097,1.359,0.263,2H22.737z M49,61c-3.309,0-6-2.691-6-6    s2.691-6,6-6s6,2.691,6,6S52.309,61,49,61z M60,57h-3.263C56.903,56.359,57,55.692,57,55s-0.097-1.359-0.263-2H61v3    C61,56.551,60.551,57,60,57z"/><path d="M32,12c-1.654,0-3,1.346-3,3s1.346,3,3,3s3-1.346,3-3S33.654,12,32,12z M32,16c-0.551,0-1-0.449-1-1s0.449-1,1-1    s1,0.449,1,1S32.551,16,32,16z"/><rect height="2" width="16" x="37" y="14"/></g></g></svg>