<?xml version="1.0" ?><svg id="Layer_1_1_" style="enable-background:new 0 0 64 64;" version="1.1" viewBox="0 0 64 64" xml:space="preserve" xmlns="http://www.w3.org/2000/svg" xmlns:xlink="http://www.w3.org/1999/xlink"><g><g><rect height="10" style="fill:#B27946;" width="4" x="30" y="52"/><rect height="10" style="fill:#B27946;" width="4" x="49" y="52"/><rect height="10" style="fill:#B27946;" width="4" x="10" y="52"/><circle cx="32" cy="39" r="7" style="fill:#FCD770;"/><circle cx="32" cy="25" r="7" style="fill:#FCD770;"/><path d="M28.181,19.138C29.342,19.685,30.634,20,32,20s2.658-0.315,3.819-0.862    C34.72,18.421,33.41,18,32,18S29.28,18.421,28.181,19.138z" style="fill:#FFC729;"/><path d="M28,33.138C29.161,33.685,30.452,34,31.819,34s2.658-0.315,3.819-0.862    C34.539,32.421,33.229,32,31.819,32S29.099,32.421,28,33.138z" style="fill:#FFC729;"/><circle cx="32" cy="11" r="7" style="fill:#FCD770;"/><path d="M12,46L12,46c-2.761,0-5-2.239-5-5v-4c0-2.761,2.239-5,5-5h0c2.761,0,5,2.239,5,5v4    C17,43.761,14.761,46,12,46z" style="fill:#CF9E76;"/><path d="M8.777,33.207C9.742,33.711,10.837,34,12,34s2.258-0.289,3.223-0.793    C14.351,32.465,13.235,32,12,32S9.649,32.465,8.777,33.207z" style="fill:#B27946;"/><path d="M12,32L12,32c-2.761,0-5-2.239-5-5v-4c0-2.761,2.239-5,5-5h0c2.761,0,5,2.239,5,5v4    C17,29.761,14.761,32,12,32z" style="fill:#CF9E76;"/><path d="M8.777,19.207C9.742,19.711,10.837,20,12,20s2.258-0.289,3.223-0.793    C14.351,18.465,13.235,18,12,18S9.649,18.465,8.777,19.207z" style="fill:#B27946;"/><path d="M12,18L12,18c-2.761,0-5-2.239-5-5V9c0-2.761,2.239-5,5-5h0c2.761,0,5,2.239,5,5v4    C17,15.761,14.761,18,12,18z" style="fill:#CF9E76;"/><path d="M51,4L51,4c3.314,0,6,2.686,6,6v30c0,3.314-2.686,6-6,6h0c-3.314,0-6-2.686-6-6V10    C45,6.686,47.686,4,51,4z" style="fill:#E9573F;"/></g><g><path d="M40,11c0-4.072-3.06-7.436-7-7.931V1h-2v2.069C27.06,3.564,24,6.928,24,11c0,3.01,1.673,5.635,4.136,7    C25.673,19.365,24,21.99,24,25s1.673,5.635,4.136,7C25.673,33.365,24,35.99,24,39c0,4.072,3.06,7.436,7,7.931V51h-2v12h6V51h-2    v-4.069c3.94-0.495,7-3.859,7-7.931c0-3.01-1.673-5.635-4.136-7C38.327,30.635,40,28.01,40,25s-1.673-5.635-4.136-7    C38.327,16.635,40,14.01,40,11z M33,61h-2v-8h2V61z M38,39c0,3.309-2.691,6-6,6s-6-2.691-6-6s2.691-6,6-6S38,35.691,38,39z M38,25    c0,3.309-2.691,6-6,6s-6-2.691-6-6s2.691-6,6-6S38,21.691,38,25z M32,17c-3.309,0-6-2.691-6-6s2.691-6,6-6s6,2.691,6,6    S35.309,17,32,17z"/><rect height="2" width="2" x="28" y="10"/><rect height="2" width="2" x="34" y="24"/><rect height="2" width="2" x="31" y="35"/><rect height="2" width="2" x="34" y="38"/><rect height="2" width="2" x="30" y="40"/><rect height="2" width="2" x="32" y="7"/><rect height="2" width="2" x="33" y="12"/><rect height="2" width="2" x="29" y="22"/><rect height="2" width="2" x="30" y="27"/><path d="M13,3.09V1h-2v2.09C8.167,3.569,6,6.033,6,9v4c0,2.086,1.071,3.924,2.69,5C7.071,19.076,6,20.914,6,23v4    c0,2.086,1.071,3.924,2.69,5C7.071,33.076,6,34.914,6,37v4c0,2.967,2.167,5.431,5,5.91V51H9v12h6V51h-2v-4.09    c2.833-0.478,5-2.942,5-5.91v-4c0-2.086-1.071-3.924-2.69-5c1.62-1.076,2.69-2.914,2.69-5v-4c0-2.086-1.071-3.924-2.69-5    c1.62-1.076,2.69-2.914,2.69-5V9C18,6.033,15.833,3.569,13,3.09z M13,61h-2v-8h2V61z M16,37v4c0,2.206-1.794,4-4,4s-4-1.794-4-4    v-4c0-2.206,1.794-4,4-4S16,34.794,16,37z M16,23v4c0,2.206-1.794,4-4,4s-4-1.794-4-4v-4c0-2.206,1.794-4,4-4S16,20.794,16,23z     M16,13c0,2.206-1.794,4-4,4s-4-1.794-4-4V9c0-2.206,1.794-4,4-4s4,1.794,4,4V13z"/><rect height="2" width="4" x="10" y="8"/><rect height="2" width="4" x="10" y="12"/><rect height="2" width="4" x="10" y="22"/><rect height="2" width="4" x="10" y="26"/><rect height="2" width="4" x="10" y="36"/><rect height="2" width="4" x="10" y="40"/><path d="M52,3.08V1h-2v2.08c-3.387,0.488-6,3.401-6,6.92v30c0,3.519,2.613,6.432,6,6.92V51h-2v12h6V51h-2v-4.08    c3.387-0.488,6-3.401,6-6.92V10C58,6.481,55.387,3.568,52,3.08z M52,61h-2v-8h2V61z M56,40c0,2.757-2.243,5-5,5s-5-2.243-5-5V10    c0-2.757,2.243-5,5-5s5,2.243,5,5V40z"/><rect height="2" width="6" x="48" y="10"/><rect height="2" width="6" x="48" y="14"/><rect height="2" width="6" x="48" y="18"/><rect height="2" width="6" x="48" y="22"/><rect height="2" width="6" x="48" y="26"/><rect height="2" width="6" x="48" y="30"/><rect height="2" width="6" x="48" y="34"/><rect height="2" width="6" x="48" y="38"/></g></g></svg>