<?xml version="1.0" ?><svg id="Layer_1_1_" style="enable-background:new 0 0 64 64;" version="1.1" viewBox="0 0 64 64" xml:space="preserve" xmlns="http://www.w3.org/2000/svg" xmlns:xlink="http://www.w3.org/1999/xlink"><g><g><path d="M21,58V30h37h2c1.105,0,2,0.895,2,2v24c0,1.105-0.895,2-2,2h-4.674H42.674H21.326H21z" style="fill:#A0D468;"/><path d="M42.674,58h12.651H60c1.105,0,2-0.895,2-2v-4h-6.674H42.674H21.326H21v6h0.326H42.674z" style="fill:#E6E9ED;"/><path d="M26,58H4c-1.105,0-2-0.895-2-2V43.883c0-1.722,1.102-3.25,2.735-3.795L8,39l2.088-6.265    C10.633,31.102,12.161,30,13.883,30H26V58z" style="fill:#A0D468;"/><path d="M22,52V34h-7.279c-0.43,0-0.813,0.275-0.949,0.684l-1.721,5.162C12.017,39.948,12,40.055,12,40.162    V52H22z" style="fill:#8CC152;"/><path d="M2,56c0,1.105,0.895,2,2,2h22v-6H2V56z" style="fill:#CCD1D9;"/><circle cx="15" cy="55" r="7" style="fill:#656D78;"/><circle cx="15" cy="55" r="3" style="fill:#838F9B;"/><path d="M14.721,34c-0.43,0-0.813,0.275-0.949,0.684l-1.721,5.162c-0.017,0.05-0.016,0.103-0.025,0.154H22    v-6H14.721z" style="fill:#E6E9ED;"/><rect height="26" style="fill:#969FAA;" width="32" x="26" y="26"/><rect height="12" style="fill:#FCD770;" width="32" x="26" y="40"/><rect height="14" style="fill:#DFB28B;" width="4" x="26" y="26"/><rect height="4" style="fill:#FFC729;" width="32" x="26" y="40"/><polygon points="54.745,16 60,16 60,26 24,26 24,16 31.625,16   " style="fill:#DFB28B;"/><circle cx="49" cy="55" r="7" style="fill:#656D78;"/><circle cx="49" cy="55" r="3" style="fill:#838F9B;"/><rect height="4" style="fill:#8CC152;" width="18" x="29" y="2"/><path d="M54.745,16h-23.12h-2.004l0.5,8H45.88l0.004-0.067C46.252,23.974,46.624,24,47,24    c2.671,0,5.182-1.04,7.071-2.929c1.439-1.439,2.343-3.212,2.719-5.071H54.745z" style="fill:#CF9E76;"/><polygon points="44.333,16.667 45,6 31,6 32,22 44,22 44.036,21.431   " style="fill:#B4DD7F;"/><path d="M38.514,19.657l1.415,1.414c0.341,0.341,0.709,0.644,1.088,0.929H44l0.036-0.569l0.298-4.765    l0.189-3.018L38.514,19.657z" style="fill:#A0D468;"/><polygon points="44.875,8 45,6 31,6 31.125,8   " style="fill:#A0D468;"/><path d="M41.343,19.657c3.124,3.124,8.19,3.124,11.314,0c3.124-3.124,3.124-8.19,0-11.314L41.343,19.657z" style="fill:#FFC729;"/><rect height="14" style="fill:#DFB28B;" width="4" x="54" y="26"/><rect height="22" style="fill:#8CC152;" width="2" x="24" y="30"/><rect height="22" style="fill:#8CC152;" width="2" x="58" y="30"/><rect height="2" style="fill:#CF9E76;" width="4" x="26" y="26"/><rect height="2" style="fill:#CF9E76;" width="4" x="26" y="38"/><rect height="2" style="fill:#CF9E76;" width="4" x="54" y="26"/><rect height="2" style="fill:#CF9E76;" width="4" x="54" y="38"/><rect height="2" style="fill:#838F9B;" width="24" x="30" y="26"/></g><g><path d="M15,51c-2.206,0-4,1.794-4,4s1.794,4,4,4s4-1.794,4-4S17.206,51,15,51z M15,57c-1.103,0-2-0.897-2-2s0.897-2,2-2    s2,0.897,2,2S16.103,57,15,57z"/><path d="M49,51c-2.206,0-4,1.794-4,4s1.794,4,4,4s4-1.794,4-4S51.206,51,49,51z M49,57c-1.103,0-2-0.897-2-2s0.897-2,2-2    s2,0.897,2,2S50.103,57,49,57z"/><path d="M60,29h-1v-2h2V15h-5.065c0.291-2.626-0.562-5.355-2.571-7.364l-0.707-0.707l-7.161,7.161L45.939,7H48V1H28v6h2.061l0.5,8    H23v12h2v2H13.883c-2.155,0-4.062,1.374-4.743,3.418l-1.931,5.791l-2.79,0.931C2.374,39.821,1,41.728,1,43.883V56    c0,1.654,1.346,3,3,3h4.082c1.386,2.387,3.964,4,6.918,4s5.532-1.613,6.918-4h20.165c1.386,2.387,3.964,4,6.918,4    s5.532-1.613,6.918-4H60c1.654,0,3-1.346,3-3V32C63,30.346,61.654,29,60,29z M60,31c0.552,0,1,0.449,1,1v19h-2V31H60z M49,47    c-2.953,0-5.532,1.613-6.918,4H27v-6h30v6h-1.082C54.532,48.613,51.953,47,49,47z M53,27v12H31V27H53z M57,41v2H27v-2H57z M57,39    h-2V27h2V39z M51.95,18.95c-2.49,2.488-6.404,2.708-9.143,0.657l9.799-9.799C54.658,12.547,54.439,16.46,51.95,18.95z M30,3h16v2    H30V3z M43.936,7l-0.577,9.227l-3.43,3.43l0.707,0.707c0.227,0.227,0.465,0.438,0.709,0.636h-8.406L32.064,7H43.936z M25,17h5.686    l0.375,6h13.88l0.015-0.248c0.672,0.156,1.357,0.244,2.044,0.244c2.305,0,4.609-0.877,6.364-2.632    c0.98-0.98,1.677-2.136,2.109-3.364H59v8H25V17z M29,27v12h-2V27H29z M5.052,41.036l3.739-1.245l2.245-6.739    C11.446,31.824,12.59,31,13.883,31H25v20h-2V33h-8.279c-0.862,0-1.625,0.55-1.896,1.367l-1.721,5.162    C11.035,39.734,11,39.947,11,40.162v7.92C9.791,48.784,8.784,49.791,8.082,51H3v-7.117C3,42.59,3.824,41.446,5.052,41.036z M21,39    h-7.613l1.333-4H21V39z M13,41h8v8.726C19.533,48.059,17.39,47,15,47c-0.692,0-1.359,0.097-2,0.263V41z M4,57    c-0.552,0-1-0.448-1-1v-3h4.263C7.097,53.641,7,54.308,7,55s0.097,1.359,0.263,2H4z M15,61c-3.309,0-6-2.691-6-6s2.691-6,6-6    s6,2.691,6,6S18.309,61,15,61z M22.737,57C22.903,56.359,23,55.692,23,55s-0.097-1.359-0.263-2h18.527    C41.097,53.641,41,54.308,41,55s0.097,1.359,0.263,2H22.737z M49,61c-3.309,0-6-2.691-6-6s2.691-6,6-6s6,2.691,6,6    S52.309,61,49,61z M60,57h-3.263C56.903,56.359,57,55.692,57,55s-0.097-1.359-0.263-2H61v3C61,56.552,60.552,57,60,57z"/></g></g></svg>