<?xml version="1.0" ?><svg id="Layer_1_1_" style="enable-background:new 0 0 64 64;" version="1.1" viewBox="0 0 64 64" xml:space="preserve" xmlns="http://www.w3.org/2000/svg" xmlns:xlink="http://www.w3.org/1999/xlink"><g><g><path d="M39,19l2.951-13.774C41.984,5.076,42,4.922,42,4.768V4.186C42,2.979,41.021,2,39.814,2h0    c-1.052,0-1.955,0.749-2.148,1.783L35,18l-1,4l4,1L39,19z" style="fill:#DFB28B;"/><path d="M45,27l4.92-17.713C49.973,9.097,50,8.9,50,8.702V8.186C50,6.979,49.021,6,47.814,6h-0.135    c-0.99,0-1.857,0.666-2.112,1.623L42,21l-1,4L45,27z" style="fill:#DFB28B;"/><path d="M35.5,16c-0.043,0-0.084,0.006-0.126,0.006L35,18l-1,4l4,1l1-4l0.487-2.273    C38.243,16.265,36.903,16,35.5,16z" style="fill:#CF9E76;"/><path d="M46.1,23.041c-0.753-1.782-1.946-3.331-3.438-4.523L42,21l-1,4l4,2L46.1,23.041z" style="fill:#CF9E76;"/><circle cx="35.5" cy="27.5" r="9.5" style="fill:#FCD770;"/><path d="M27.133,32h16.734c0.338-0.627,0.598-1.299,0.789-2H26.344C26.535,30.701,26.795,31.373,27.133,32z    " style="fill:#FFC729;"/><path d="M26,27.5c0,0.769,0.101,1.513,0.274,2.229C30.694,28.695,34,24.73,34,20    c0-0.63-0.066-1.245-0.178-1.843C29.377,18.95,26,22.827,26,27.5z" style="fill:#FFC729;"/><circle cx="35" cy="28" r="6" style="fill:#FFEAA7;"/><path d="M30.537,32h8.926c0.518-0.577,0.924-1.254,1.188-2H29.349C29.613,30.746,30.019,31.423,30.537,32z" style="fill:#FCD770;"/><path d="M33.134,22.3C30.735,23.085,29,25.338,29,28c0,3.314,2.686,6,6,6c1.525,0,2.913-0.574,3.972-1.511    C38.979,32.325,39,32.165,39,32C39,27.791,36.616,24.145,33.134,22.3z" style="fill:#FCD770;"/><path d="M28.559,21.028C26.976,22.725,26,24.996,26,27.5c0,5.247,4.253,9.5,9.5,9.5    c0.847,0,1.663-0.121,2.445-0.329C38.614,35.251,39,33.671,39,32C39,26.123,34.364,21.322,28.559,21.028z" style="fill:#FFC729;"/><path d="M46.455,37.455l2.924,2.924c0.398,0.398,0.937,0.621,1.5,0.621h0C52.05,41,53,40.05,53,38.879v0    c0-0.563-0.223-1.102-0.621-1.5L47,32H17l-5.379,5.379C11.223,37.777,11,38.316,11,38.879v0C11,40.05,11.95,41,13.121,41h0    c0.563,0,1.102-0.223,1.5-0.621l2.924-2.924L46.455,37.455z" style="fill:#E6E9ED;"/><circle cx="28" cy="32" r="9" style="fill:#FCD770;"/><circle cx="28" cy="32" r="5" style="fill:#FFEAA7;"/><path d="M19.545,28.94C20.889,29.612,22.398,30,24,30c3.904,0,7.284-2.254,8.93-5.525    C31.513,23.545,29.821,23,28,23C24.106,23,20.799,25.478,19.545,28.94z" style="fill:#FFC729;"/><path d="M24,30c2.445,0,4.684-0.885,6.421-2.349C29.701,27.249,28.883,27,28,27    c-2.036,0-3.779,1.221-4.56,2.966C23.627,29.977,23.811,30,24,30z" style="fill:#FCD770;"/><circle cx="24" cy="20" r="8" style="fill:#FCD770;"/><circle cx="24" cy="20" r="4" style="fill:#FFEAA7;"/><polygon points="47,32 44,62 20,62 17,32   " style="fill:#FF826E;"/><path d="M47,32L47,32c-3.842,3.842-9.052,6-14.485,6h-1.029C26.052,38,20.842,35.842,17,32l0,0H47z" style="fill:#E6E9ED;"/><polygon points="44.4,58 19.6,58 20,62 44,62   " style="fill:#FCD770;"/><ellipse cx="32" cy="49" rx="9" ry="5" style="fill:#E6E9ED;"/><path d="M19.231,30C19.084,30.644,19,31.312,19,32h18c0-0.688-0.084-1.356-0.231-2H19.231z" style="fill:#FFC729;"/><path d="M23.422,30C23.154,30.613,23,31.288,23,32h10c0-0.712-0.154-1.387-0.422-2H23.422z" style="fill:#FCD770;"/></g><g><path d="M53.086,36.672L47.414,31h-1.841C45.849,30.029,46,29.027,46,28c0-0.247-0.021-0.489-0.037-0.733l0.001,0l4.919-17.709    C50.96,9.282,51,8.994,51,8.702V8.186C51,6.429,49.571,5,47.814,5H47.68c-1.441,0-2.708,0.973-3.078,2.365l-3.135,11.756    c-0.412-0.301-0.841-0.581-1.294-0.823l2.756-12.861C42.977,5.216,43,4.991,43,4.769V4.186C43,2.429,41.571,1,39.814,1    c-1.533,0-2.85,1.093-3.131,2.599l-2.519,13.434c-0.536,0.04-1.066,0.124-1.589,0.242C31.418,13.641,28.013,11,24,11    c-4.963,0-9,4.037-9,9c0,3.146,1.625,5.916,4.078,7.526c-0.546,1.088-0.885,2.26-1.007,3.474h-1.485l-5.672,5.672    C10.333,37.253,10,38.057,10,38.879C10,40.6,11.4,42,13.121,42c0.822,0,1.626-0.333,2.207-0.914l1.432-1.432L19.095,63h25.811    l2.334-23.346l1.432,1.432C49.253,41.667,50.057,42,50.879,42C52.6,42,54,40.6,54,38.879C54,38.057,53.667,37.253,53.086,36.672z     M44.312,33c-3.377,2.583-7.474,4-11.798,4h-1.029c-4.324,0-8.421-1.417-11.798-4H44.312z M25.538,28.859    c0.903-0.156,1.758-0.445,2.548-0.85c1.82,0.04,3.332,1.298,3.772,2.991h-7.725C24.348,30.158,24.834,29.411,25.538,28.859z     M38.974,31h-1.031c-0.322-3.161-2.148-5.994-4.858-7.604C33.687,23.145,34.329,23,35,23c2.757,0,5,2.243,5,5    C40,29.092,39.627,30.135,38.974,31z M31.564,24.859c2.379,1.192,4.021,3.506,4.358,6.141H33.91    c-0.349-2.068-1.754-3.778-3.644-4.552C30.757,25.97,31.191,25.437,31.564,24.859z M46.534,7.881C46.672,7.362,47.143,7,47.68,7    h0.135C48.468,7,49,7.532,49,8.186v0.517c0,0.108-0.015,0.214-0.044,0.317l-3.988,14.358c-0.471-1.012-1.091-1.938-1.833-2.755    L46.534,7.881z M38.649,3.967C38.754,3.406,39.244,3,39.814,3C40.468,3,41,3.532,41,4.186v0.583c0,0.082-0.009,0.166-0.026,0.248    l-2.676,12.49c-0.676-0.213-1.381-0.36-2.106-0.439L38.649,3.967z M35,19c4.963,0,9,4.037,9,9c0,1.035-0.182,2.04-0.522,3h-2.156    C41.763,30.07,42,29.048,42,28c0-3.859-3.141-7-7-7c-0.729,0-1.435,0.122-2.11,0.335C32.955,20.898,33,20.455,33,20    c0-0.258-0.017-0.512-0.039-0.765C33.627,19.081,34.309,19,35,19z M17,20c0-3.859,3.141-7,7-7s7,3.141,7,7s-3.141,7-7,7    S17,23.859,17,20z M20.86,28.423c0.635,0.238,1.302,0.407,1.996,0.495c-0.382,0.636-0.64,1.338-0.764,2.081h-2.021    C20.184,30.1,20.454,29.233,20.86,28.423z M13.914,39.672C13.705,39.881,13.416,40,13.121,40C12.503,40,12,39.497,12,38.879    c0-0.295,0.119-0.584,0.328-0.793l3.887-3.887l0.288,2.884L13.914,39.672z M20.905,61l-0.2-2h22.589l-0.2,2H20.905z M43.495,57    h-22.99l-2.258-22.581C22.012,37.38,26.621,39,31.485,39h1.029c4.865,0,9.473-1.62,13.238-4.581L43.495,57z M50.879,40    c-0.295,0-0.584-0.119-0.793-0.328l-2.589-2.589l0.288-2.884l3.887,3.887C51.881,38.295,52,38.584,52,38.879    C52,39.497,51.497,40,50.879,40z"/><path d="M32,43c-5.607,0-10,2.636-10,6s4.393,6,10,6s10-2.636,10-6S37.607,43,32,43z M32,53c-4.715,0-8-2.108-8-4s3.285-4,8-4    s8,2.108,8,4S36.715,53,32,53z"/><path d="M29,20c0-2.757-2.243-5-5-5s-5,2.243-5,5s2.243,5,5,5S29,22.757,29,20z M21,20c0-1.654,1.346-3,3-3s3,1.346,3,3    s-1.346,3-3,3S21,21.654,21,20z"/></g></g></svg>